<svg xmlns="http://www.w3.org/2000/svg" viewBox="0 0 72 71" width="72" height="71">
	<style>
		tspan { white-space:pre }
		.shp0 { fill: #ff0000 } 
	</style>
	<path id="Shape 1" class="shp0" d="M13.26 33.18L17.41 29L33.9 12.39C34.45 11.84 35.13 11.57 35.95 11.57C36.77 11.57 37.46 11.84 38.01 12.39L42.15 16.57C42.73 17.15 43.02 17.84 43.02 18.63C43.02 19.43 42.73 20.12 42.15 20.7L33.54 29.37L56.42 29.37C57.21 29.37 57.89 29.66 58.47 30.24C59.04 30.82 59.33 31.51 59.33 32.31L59.33 38.18C59.33 38.98 59.04 39.67 58.47 40.25C57.89 40.83 57.21 41.12 56.42 41.12L33.54 41.12L42.15 49.79C42.7 50.35 42.97 51.03 42.97 51.86C42.97 52.69 42.7 53.37 42.15 53.93L38.01 58.1C37.46 58.65 36.77 58.93 35.95 58.93C35.13 58.93 34.45 58.65 33.9 58.1L17.41 41.49L13.26 37.31C12.71 36.76 12.44 36.07 12.44 35.25C12.44 34.42 12.71 33.73 13.26 33.18L13.26 33.18ZM18.43 65.77C23.79 68.92 29.65 70.49 36 70.49C42.35 70.49 48.21 68.92 53.57 65.77C58.93 62.61 63.18 58.34 66.31 52.94C69.44 47.54 71 41.64 71 35.25C71 28.85 69.44 22.95 66.31 17.55C63.18 12.15 58.93 7.88 53.57 4.73C48.21 1.58 42.35 0 36 0C29.65 0 23.79 1.58 18.43 4.73C13.07 7.88 8.82 12.15 5.69 17.55C2.57 22.95 1 28.85 1 35.25C1 41.64 2.57 47.54 5.69 52.94C8.82 58.34 13.07 62.61 18.43 65.77Z" />
</svg>